<svg width="52" height="52" viewBox="0 0 52 52" fill="none" xmlns="http://www.w3.org/2000/svg">
<g clip-path="url(#clip0_5_867)">
<path fill-rule="evenodd" clip-rule="evenodd" d="M26 0C11.6594 0 0 11.6594 0 26C0 40.3406 11.6594 52 26 52C40.3406 52 52 40.3406 52 26C52 11.6594 40.3406 0 26 0Z" fill="#FF0000"/>
<path d="M20.993 37.893C17.6719 34.5719 14.3711 31.2203 11.0398 27.8992C10.6742 27.5336 10.6742 26.9242 11.0398 26.5586L14.8687 22.7297C15.2344 22.3641 15.8438 22.3641 16.2094 22.7297L21.6836 28.2039L35.7602 14.1172C36.1359 13.7516 36.7352 13.7516 37.1109 14.1172L40.95 17.9563C41.3258 18.332 41.3258 18.9313 40.95 19.2969L22.3336 37.893C21.968 38.2688 21.3687 38.2688 20.993 37.893Z" fill="white"/>
</g>
<defs>
<clipPath id="clip0_5_867">
<rect width="52" height="52" fill="white"/>
</clipPath>
</defs>
</svg>
