<svg width="52" height="52" viewBox="0 0 52 52" fill="none" xmlns="http://www.w3.org/2000/svg">
<rect width="52" height="52" rx="12" fill="white" fill-opacity="0.04"/>
<path d="M24.0802 27.04H22.1002C21.7802 27.04 21.6802 26.92 21.6802 26.62V24.2C21.6802 23.88 21.8002 23.78 22.1002 23.78H24.0802V22.02C24.0802 21.22 24.2202 20.46 24.6202 19.76C25.0402 19.04 25.6402 18.56 26.4002 18.28C26.9002 18.1 27.4002 18.02 27.9402 18.02H29.9002C30.1802 18.02 30.3002 18.14 30.3002 18.42V20.7C30.3002 20.98 30.1802 21.1 29.9002 21.1C29.3602 21.1 28.8202 21.1 28.2802 21.12C27.7402 21.12 27.4602 21.38 27.4602 21.94C27.4402 22.54 27.4602 23.12 27.4602 23.74H29.7802C30.1002 23.74 30.2202 23.86 30.2202 24.18V26.6C30.2202 26.92 30.1202 27.02 29.7802 27.02H27.4602V33.54C27.4602 33.88 27.3602 34 27.0002 34H24.5002C24.2002 34 24.0802 33.88 24.0802 33.58V27.04Z" fill="white"/>
</svg>
