<svg width="24" height="24" viewBox="0 0 24 24" fill="none" xmlns="http://www.w3.org/2000/svg">
<path d="M12.0001 4.21877C12.7534 4.21877 13.4154 3.82155 13.7886 3.22581C14.9916 3.47092 16.1447 3.96728 17.1509 4.67636C17.2691 4.76 17.4104 4.80488 17.5553 4.8048C17.7762 4.8048 17.9937 4.70097 18.1307 4.50667C18.3544 4.18928 18.2784 3.75062 17.961 3.52694C16.8033 2.71103 15.4773 2.13877 14.0934 1.85316C13.9664 0.810519 13.0764 0 12.0001 0C10.837 0 9.8907 0.946269 9.8907 2.10938C9.8907 3.2725 10.837 4.21877 12.0001 4.21877ZM12.0001 19.7812C11.2467 19.7812 10.5848 20.1785 10.2116 20.7742C9.0086 20.5291 7.85547 20.0328 6.84925 19.3237C6.53186 19.1 6.0932 19.176 5.86946 19.4934C5.64577 19.8108 5.72176 20.2495 6.0392 20.4731C7.19688 21.289 8.52293 21.8612 9.90678 22.1468C10.0337 23.1895 10.9237 24 12 24C13.1631 24 14.1094 23.0538 14.1094 21.8906C14.1095 20.7275 13.1632 19.7812 12.0001 19.7812ZM20.5656 14.8359C19.4025 14.8359 18.4562 15.7822 18.4562 16.9453C18.4559 17.2903 18.5407 17.63 18.7032 17.9343C17.8864 18.8549 16.8809 19.6062 15.7686 20.1232C15.4164 20.2869 15.2637 20.705 15.4274 21.0572C15.5465 21.3134 15.8003 21.4641 16.0654 21.4641C16.1677 21.4641 16.2687 21.4417 16.3613 21.3985C17.6405 20.8039 18.7971 19.9416 19.7386 18.8856C19.9999 18.9975 20.2813 19.055 20.5656 19.0547C21.7287 19.0547 22.675 18.1085 22.675 16.9453C22.675 15.7822 21.7287 14.8359 20.5656 14.8359ZM3.50588 14.8377C3.20119 13.9261 3.04692 12.9735 3.04692 12C3.04692 11.7363 3.05878 11.4679 3.08222 11.2022C3.11634 10.8154 2.8304 10.4742 2.44354 10.44C2.05673 10.4061 1.71548 10.6919 1.6814 11.0787C1.65437 11.3851 1.64078 11.6924 1.64067 12C1.64067 13.1181 1.81701 14.2131 2.1651 15.2619C1.65534 15.6473 1.3252 16.2584 1.3252 16.9452C1.3252 18.1084 2.27146 19.0546 3.43458 19.0546C4.59769 19.0546 5.54396 18.1084 5.54396 16.9452C5.54396 15.806 4.63604 14.8756 3.50588 14.8377ZM20.4938 9.16227C20.7985 10.0735 20.9532 11.0256 20.9532 12C20.9532 12.3883 21.2681 12.7031 21.6564 12.7031C22.0447 12.7031 22.3595 12.3883 22.3595 12C22.3595 10.881 22.1827 9.78674 21.8347 8.73838C22.3447 8.35297 22.675 7.74177 22.675 7.05472C22.675 5.8916 21.7287 4.94533 20.5656 4.94533C19.4025 4.94533 18.4562 5.8916 18.4562 7.05472C18.4562 8.19378 19.3638 9.12416 20.4938 9.16227ZM8.23155 3.87681C8.58372 3.71312 8.73649 3.295 8.5728 2.94282C8.40911 2.5907 7.99099 2.43793 7.63881 2.60157C6.35959 3.19618 5.20304 4.0585 4.2616 5.11441C4.00023 5.0026 3.71886 4.94507 3.43458 4.94533C2.27146 4.94533 1.3252 5.8916 1.3252 7.05472C1.3252 8.21783 2.27146 9.1641 3.43458 9.1641C4.59769 9.1641 5.54396 8.21788 5.54396 7.05472C5.54428 6.70975 5.45946 6.37003 5.29702 6.0657C6.11373 5.14507 7.1192 4.3938 8.23155 3.87681ZM16.7432 10.3699C16.7432 7.75452 14.6154 5.62671 12.0001 5.62671C9.38473 5.62671 7.25688 7.75452 7.25688 10.3699C7.25688 11.9079 8.00388 12.8632 8.60412 13.6307C8.75182 13.8196 8.88691 13.9927 8.99698 14.1558H11.2969V11.6057L10.4386 10.919C10.1353 10.6764 10.0862 10.2339 10.3288 9.9307C10.5714 9.62751 11.0138 9.57833 11.3171 9.82091L12 10.3673L12.683 9.82091C12.9862 9.57824 13.4287 9.62746 13.6713 9.9307C13.9139 10.2339 13.8647 10.6764 13.5615 10.919L12.7032 11.6057V14.1558H15.0031C15.1132 13.9927 15.2483 13.8196 15.396 13.6307C15.9962 12.8631 16.7432 11.9078 16.7432 10.3699ZM9.27841 17.6716C9.27841 18.0599 9.59323 18.3747 9.98154 18.3747H14.0194C14.4077 18.3747 14.7225 18.0599 14.7225 17.6716V15.562H9.27841V17.6716Z" fill="white"/>
</svg>
