<svg width="24" height="24" viewBox="0 0 24 24" fill="none" xmlns="http://www.w3.org/2000/svg">
<g clip-path="url(#clip0_150_34)">
<path fill-rule="evenodd" clip-rule="evenodd" d="M23.1902 9.32948C21.3031 8.94816 19.4159 9.13927 17.5287 9.90286C17.473 9.92537 17.4281 9.96844 17.4032 10.0232C17.3784 10.0779 17.3755 10.14 17.3952 10.1968L20.0608 17.8942C20.0941 17.9903 20.1806 18.0519 20.2823 18.0519H23.1902V9.32948ZM6.88923 0.570984C7.90946 0.570984 8.73653 1.38787 8.73653 2.39559C8.73653 3.40331 7.90946 4.2202 6.88923 4.2202C5.869 4.2202 5.04193 3.40331 5.04193 2.39559C5.04193 1.38787 5.869 0.570984 6.88923 0.570984ZM12.0002 1.91747C13.0204 1.91747 13.8474 2.73436 13.8474 3.74208C13.8474 4.7498 13.0204 5.56669 12.0002 5.56669C10.9799 5.56669 10.1529 4.7498 10.1529 3.74208C10.1529 2.73436 10.9799 1.91747 12.0002 1.91747ZM17.1111 0.570984C18.1314 0.570984 18.9584 1.38787 18.9584 2.39559C18.9584 3.40331 18.1314 4.2202 17.1111 4.2202C16.0909 4.2202 15.2638 3.40331 15.2638 2.39559C15.2638 1.38787 16.0909 0.570984 17.1111 0.570984ZM8.8524 13.8454C8.8524 13.4833 8.97878 13.1888 9.24278 12.9406L11.171 11.1276C12.2936 10.0721 13.3307 10.2825 14.6396 10.6968C15.4024 10.9383 16.1445 11.1731 17.0083 11.2283L19.1151 17.312C18.8609 17.4385 18.5997 17.5641 18.3155 17.68C17.8377 17.875 17.3322 17.7738 16.967 17.4089L12.7638 13.2083C12.7005 13.1454 12.6156 13.109 12.5264 13.1065C12.4371 13.104 12.3503 13.1357 12.2836 13.195C12.2835 13.1949 12.1431 13.3116 12.1306 13.3217C11.7001 13.6692 10.9785 14.2515 10.9785 15.215C10.9785 15.7663 10.711 16.2231 10.304 16.5525C9.91225 16.8697 9.39367 17.0719 8.8524 17.1336V13.8454ZM6.91107 11.4622C7.25111 11.5486 7.58162 11.6083 7.91148 11.643C8.47782 11.7028 9.03653 11.6886 9.63287 11.611L8.76212 12.4298C8.36223 12.8058 8.14928 13.2964 8.14928 13.8454V17.5053C8.14928 17.5985 8.18632 17.6879 8.25225 17.7539C8.31818 17.8198 8.4076 17.8568 8.50084 17.8568C9.31829 17.8568 10.1439 17.584 10.7462 17.0965C11.3107 16.6396 11.6816 15.998 11.6816 15.2151C11.6816 14.6313 12.1597 14.2028 12.494 13.9299L16.4725 17.9061C16.6633 18.0968 16.8826 18.2414 17.1183 18.3376C17.2787 18.5053 17.4387 18.6733 17.5987 18.8413C17.8827 19.1382 17.8999 19.6101 17.6042 19.9058C17.3154 20.1946 16.8354 20.1946 16.5466 19.9058C15.7752 19.1344 15.0171 18.3449 14.2543 17.5633C14.2224 17.5294 14.1841 17.5023 14.1416 17.4834C14.0991 17.4645 14.0532 17.4542 14.0067 17.4532C13.9603 17.4522 13.914 17.4605 13.8707 17.4775C13.8275 17.4945 13.788 17.52 13.7547 17.5524C13.7213 17.5848 13.6948 17.6236 13.6766 17.6664C13.6583 17.7091 13.6488 17.7551 13.6485 17.8016C13.6482 17.8481 13.6572 17.8942 13.6749 17.9372C13.6926 17.9802 13.7187 18.0193 13.7516 18.0521L15.8443 20.1977C16.1348 20.4882 16.1347 20.9648 15.8442 21.2553C15.5539 21.5457 15.0771 21.5457 14.7867 21.2553C13.9824 20.451 13.1923 19.6303 12.3971 18.8155C12.3323 18.7488 12.2436 18.7107 12.1506 18.7094C12.0577 18.7081 11.968 18.7438 11.9013 18.8086C11.8347 18.8735 11.7965 18.9621 11.7952 19.0551C11.794 19.1481 11.8297 19.2377 11.8945 19.3044L13.9872 21.45C14.276 21.7388 14.2761 22.2187 13.9872 22.5075C13.7081 22.7866 13.1821 22.76 12.9296 22.5075C12.0563 21.6342 11.1984 20.7474 10.335 19.8627C10.3032 19.8287 10.2648 19.8014 10.2223 19.7824C10.1798 19.7634 10.1339 19.7531 10.0873 19.752C10.0407 19.7509 9.99439 19.7591 9.95103 19.7761C9.90766 19.7932 9.86813 19.8187 9.83473 19.8512C9.80133 19.8837 9.77474 19.9225 9.75652 19.9653C9.73829 20.0082 9.7288 20.0543 9.72858 20.1009C9.72836 20.1475 9.73744 20.1936 9.75527 20.2367C9.77309 20.2797 9.79932 20.3188 9.83242 20.3516L11.9251 22.4972C12.1382 22.7104 12.1361 23.0625 11.9214 23.2733C11.7128 23.4768 11.3696 23.484 11.1614 23.2759C11.1531 23.2842 7.71789 19.7488 7.40476 19.4279C6.61079 18.6145 5.90354 17.8925 4.86639 17.3664L6.91107 11.4622ZM8.9327 9.37505H15.0676V7.90509C15.0676 6.92259 14.5172 6.06248 13.7097 5.61745C13.256 6.02353 12.6553 6.26977 12.0001 6.26977C11.3449 6.26977 10.7442 6.02348 10.2905 5.61745C9.48296 6.06248 8.93265 6.92259 8.93265 7.90509V9.37505H8.9327ZM15.7707 8.02856V7.90509C15.7707 6.80986 15.2332 5.83533 14.4089 5.23148C14.6487 4.82892 14.9913 4.49742 15.4015 4.27102C15.8714 4.69186 16.4803 4.92419 17.1111 4.92333C17.7419 4.92418 18.3508 4.69186 18.8207 4.27102C19.6282 4.716 20.1785 5.57616 20.1785 6.55861V8.02856H15.7707ZM3.82178 8.02856V6.55861C3.82178 5.57611 4.37204 4.716 5.17961 4.27102C5.63331 4.67709 6.23406 4.92333 6.88923 4.92333C7.5444 4.92333 8.14511 4.67709 8.59881 4.27102C9.00903 4.49743 9.35161 4.82893 9.59139 5.23148C8.76709 5.83533 8.22962 6.80986 8.22962 7.90509V8.02856H3.82178ZM0.810059 9.32948V18.0519H3.71804C3.81972 18.0519 3.90625 17.9903 3.93948 17.8943L6.60517 10.1969C6.62488 10.1401 6.62201 10.0779 6.59715 10.0232C6.57229 9.96847 6.52735 9.92541 6.47162 9.90291C4.58443 9.13931 2.69725 8.94816 0.810059 9.32948Z" fill="white"/>
</g>
<defs>
<clipPath id="clip0_150_34">
<rect width="24" height="24" fill="white"/>
</clipPath>
</defs>
</svg>
