<svg width="52" height="52" viewBox="0 0 52 52" fill="none" xmlns="http://www.w3.org/2000/svg">
<rect width="52" height="52" rx="10" fill="#161616"/>
<path d="M26.001 23C25.2054 23 24.4423 23.3161 23.8797 23.8787C23.3171 24.4413 23.001 25.2043 23.001 26C23.001 26.7956 23.3171 27.5587 23.8797 28.1213C24.4423 28.6839 25.2054 29 26.001 29C26.7966 29 27.5597 28.6839 28.1223 28.1213C28.6849 27.5587 29.001 26.7956 29.001 26C29.001 25.2043 28.6849 24.4413 28.1223 23.8787C27.5597 23.3161 26.7966 23 26.001 23ZM26.001 21C27.3271 21 28.5989 21.5268 29.5365 22.4645C30.4742 23.4022 31.001 24.6739 31.001 26C31.001 27.3261 30.4742 28.5979 29.5365 29.5355C28.5989 30.4732 27.3271 31 26.001 31C24.6749 31 23.4031 30.4732 22.4655 29.5355C21.5278 28.5979 21.001 27.3261 21.001 26C21.001 24.6739 21.5278 23.4022 22.4655 22.4645C23.4031 21.5268 24.6749 21 26.001 21ZM32.501 20.75C32.501 21.0815 32.3693 21.3995 32.1349 21.6339C31.9005 21.8683 31.5825 22 31.251 22C30.9195 22 30.6015 21.8683 30.3671 21.6339C30.1327 21.3995 30.001 21.0815 30.001 20.75C30.001 20.4185 30.1327 20.1005 30.3671 19.8661C30.6015 19.6317 30.9195 19.5 31.251 19.5C31.5825 19.5 31.9005 19.6317 32.1349 19.8661C32.3693 20.1005 32.501 20.4185 32.501 20.75ZM26.001 18C23.527 18 23.123 18.007 21.972 18.058C21.188 18.095 20.662 18.2 20.174 18.39C19.7656 18.5399 19.3964 18.7803 19.094 19.093C18.781 19.3954 18.5404 19.7646 18.39 20.173C18.2 20.663 18.095 21.188 18.059 21.971C18.007 23.075 18 23.461 18 26C18 28.475 18.007 28.878 18.058 30.029C18.095 30.812 18.2 31.339 18.389 31.826C18.559 32.261 18.759 32.574 19.091 32.906C19.428 33.242 19.741 33.443 20.171 33.609C20.665 33.8 21.191 33.906 21.971 33.942C23.075 33.994 23.461 34 26 34C28.475 34 28.878 33.993 30.029 33.942C30.811 33.905 31.337 33.8 31.826 33.611C32.234 33.4603 32.6031 33.2201 32.906 32.908C33.243 32.572 33.444 32.259 33.61 31.828C33.8 31.336 33.906 30.81 33.942 30.028C33.994 28.925 34 28.538 34 26C34 23.526 33.993 23.122 33.942 21.971C33.905 21.189 33.799 20.661 33.61 20.173C33.4593 19.765 33.219 19.396 32.907 19.093C32.6047 18.7799 32.2355 18.5392 31.827 18.389C31.337 18.199 30.811 18.094 30.029 18.058C28.926 18.006 28.54 18 26 18M26 16C28.717 16 29.056 16.01 30.123 16.06C31.187 16.11 31.913 16.277 32.55 16.525C33.21 16.779 33.766 17.123 34.322 17.678C34.8305 18.1779 35.224 18.7826 35.475 19.45C35.722 20.087 35.89 20.813 35.94 21.878C35.987 22.944 36 23.283 36 26C36 28.717 35.99 29.056 35.94 30.122C35.89 31.187 35.722 31.912 35.475 32.55C35.2246 33.2178 34.8311 33.8226 34.322 34.322C33.822 34.8303 33.2173 35.2238 32.55 35.475C31.913 35.722 31.187 35.89 30.123 35.94C29.056 35.987 28.717 36 26 36C23.283 36 22.944 35.99 21.877 35.94C20.813 35.89 20.088 35.722 19.45 35.475C18.7823 35.2245 18.1775 34.8309 17.678 34.322C17.1694 33.8222 16.776 33.2175 16.525 32.55C16.277 31.913 16.11 31.187 16.06 30.122C16.012 29.056 16 28.717 16 26C16 23.283 16.01 22.944 16.06 21.878C16.11 20.813 16.277 20.088 16.525 19.45C16.7752 18.7822 17.1688 18.1773 17.678 17.678C18.1777 17.1692 18.7824 16.7757 19.45 16.525C20.087 16.277 20.812 16.11 21.877 16.06C22.945 16.013 23.284 16 26.001 16" fill="white"/>
</svg>
