<svg width="52" height="52" viewBox="0 0 52 52" fill="none" xmlns="http://www.w3.org/2000/svg">
<rect width="52" height="52" rx="10" fill="#161616"/>
<path fill-rule="evenodd" clip-rule="evenodd" d="M31.4023 32.4918V32.4901L31.4173 32.4543L33.9165 19.8543V19.8143C33.9165 19.5001 33.7998 19.2259 33.5482 19.0618C33.3273 18.9176 33.0732 18.9076 32.8948 18.9209C32.7288 18.936 32.565 18.9695 32.4065 19.0209C32.3388 19.0427 32.2722 19.0672 32.2065 19.0943L32.1957 19.0984L18.2623 24.5643L18.2581 24.566C18.2158 24.5804 18.1743 24.5974 18.134 24.6168C18.0349 24.6613 17.9398 24.7143 17.8498 24.7751C17.6706 24.8985 17.3298 25.1885 17.3873 25.6485C17.4348 26.0301 17.6973 26.2718 17.8748 26.3976C17.9796 26.471 18.0922 26.5325 18.2106 26.581L18.2373 26.5926L18.2456 26.5951L18.2515 26.5976L20.6898 27.4185C20.6815 27.571 20.6965 27.7268 20.7373 27.881L21.9581 32.5135C22.0248 32.766 22.169 32.9912 22.3702 33.1576C22.5715 33.324 22.8199 33.4232 23.0805 33.4413C23.341 33.4593 23.6007 33.3952 23.823 33.2581C24.0452 33.121 24.219 32.9177 24.3198 32.6768L26.2265 30.6385L29.5007 33.1485L29.5473 33.1685C29.8448 33.2985 30.1223 33.3393 30.3765 33.3051C30.6307 33.2701 30.8323 33.1635 30.984 33.0426C31.1594 32.9004 31.2993 32.7192 31.3923 32.5135L31.399 32.4993L31.4015 32.4943L31.4023 32.4918ZM21.9456 27.5626C21.9321 27.5112 21.9353 27.4569 21.9548 27.4074C21.9743 27.358 22.009 27.316 22.054 27.2876L30.3215 22.0376C30.3215 22.0376 30.8082 21.7418 30.7907 22.0376C30.7907 22.0376 30.8773 22.0893 30.6165 22.3318C30.3698 22.5626 24.724 28.0135 24.1523 28.5651C24.1205 28.596 24.0983 28.6353 24.0881 28.6785L23.1665 32.1951L21.9456 27.5626Z" fill="white"/>
</svg>
