<svg width="52" height="52" viewBox="0 0 52 52" fill="none" xmlns="http://www.w3.org/2000/svg">
<rect width="52" height="52" rx="10" fill="#161616"/>
<path d="M28.8333 18.4562C28.6351 18.8017 28.4584 19.1586 28.3042 19.5249C26.7896 19.2917 25.2468 19.2917 23.7322 19.5249C23.578 19.1586 23.4013 18.8017 23.2031 18.4562C21.7764 18.6934 20.3894 19.1183 19.0802 19.7192C16.7392 23.0071 15.6776 26.9987 16.0854 30.9791C17.611 32.0952 19.3233 32.9465 21.1466 33.4953C21.5618 32.9616 21.9324 32.3963 22.2547 31.8049C21.6598 31.5914 21.088 31.3213 20.5477 30.9985C20.6959 30.9025 20.8361 30.7953 20.9669 30.6779C22.5427 31.4166 24.2692 31.8001 26.0182 31.8001C27.7672 31.8001 29.4937 31.4166 31.0694 30.6779C31.2092 30.7945 31.349 30.9014 31.4887 30.9985C30.9454 31.3188 30.3742 31.5919 29.7817 31.8146C30.0907 32.4194 30.4513 32.9979 30.8598 33.5439C32.6809 32.9969 34.3902 32.1455 35.9111 31.0277C36.3287 27.0466 35.2662 23.0517 32.9162 19.7677C31.6218 19.1544 30.2486 18.7133 28.8333 18.4562ZM22.704 28.7057C22.2044 28.6708 21.7382 28.4489 21.4031 28.0866C21.0681 27.7244 20.8903 27.2498 20.9071 26.7627C20.8878 26.2749 21.0647 25.799 21.4002 25.4362C21.7358 25.0733 22.2035 24.8521 22.704 24.8197C23.2044 24.8521 23.6721 25.0733 24.0077 25.4362C24.3432 25.799 24.5201 26.2749 24.5008 26.7627C24.5201 27.2505 24.3432 27.7264 24.0077 28.0892C23.6721 28.452 23.2044 28.6732 22.704 28.7057ZM29.3325 28.7057C28.8329 28.6708 28.3667 28.4489 28.0316 28.0866C27.6966 27.7244 27.5188 27.2498 27.5356 26.7627C27.5163 26.2749 27.6932 25.799 28.0287 25.4362C28.3643 25.0733 28.832 24.8521 29.3325 24.8197C29.8339 24.8497 30.3031 25.0702 30.6392 25.4336C30.9752 25.797 31.1512 26.2742 31.1294 26.7627C31.1512 27.2511 30.9752 27.7284 30.6392 28.0918C30.3031 28.4552 29.8339 28.6756 29.3325 28.7057Z" fill="white"/>
</svg>
