<svg width="16" height="16" viewBox="0 0 16 16" fill="none" xmlns="http://www.w3.org/2000/svg">
<rect x="5.0835" y="10" width="6.66667" height="3.33333" fill="white"/>
<path fill-rule="evenodd" clip-rule="evenodd" d="M6.68283 1.83067C7.07087 1.56524 7.53003 1.42323 8.00016 1.42323C8.47029 1.42323 8.92946 1.56524 9.3175 1.83067L13.6508 4.796C13.9639 5.01016 14.2201 5.29743 14.3971 5.63292C14.5742 5.96841 14.6667 6.342 14.6668 6.72133V12.3333C14.6668 12.9522 14.421 13.5457 13.9834 13.9832C13.5458 14.4208 12.9523 14.6667 12.3335 14.6667H3.66683C3.04799 14.6667 2.4545 14.4208 2.01691 13.9832C1.57933 13.5457 1.3335 12.9522 1.3335 12.3333V6.72133C1.33359 6.342 1.42616 5.96841 1.6032 5.63292C1.78024 5.29743 2.0364 5.01016 2.3495 4.796L6.68283 1.83067ZM6.3335 11.6667C6.24509 11.6667 6.16031 11.7018 6.09779 11.7643C6.03528 11.8268 6.00016 11.9116 6.00016 12C6.00016 12.0884 6.03528 12.1732 6.09779 12.2357C6.16031 12.2982 6.24509 12.3333 6.3335 12.3333H9.66683C9.75523 12.3333 9.84002 12.2982 9.90253 12.2357C9.96504 12.1732 10.0002 12.0884 10.0002 12C10.0002 11.9116 9.96504 11.8268 9.90253 11.7643C9.84002 11.7018 9.75523 11.6667 9.66683 11.6667H6.3335Z" fill="#77797B"/>
</svg>
