<svg width="52" height="52" viewBox="0 0 52 52" fill="none" xmlns="http://www.w3.org/2000/svg">
<rect width="52" height="52" rx="12" fill="white" fill-opacity="0.04"/>
<path d="M24.08 27.04H22.1C21.78 27.04 21.68 26.92 21.68 26.62V24.2C21.68 23.88 21.8 23.78 22.1 23.78H24.08V22.02C24.08 21.22 24.22 20.46 24.62 19.76C25.04 19.04 25.64 18.56 26.4 18.28C26.9 18.1 27.4 18.02 27.94 18.02H29.9C30.18 18.02 30.3 18.14 30.3 18.42V20.7C30.3 20.98 30.18 21.1 29.9 21.1C29.36 21.1 28.82 21.1 28.28 21.12C27.74 21.12 27.46 21.38 27.46 21.94C27.44 22.54 27.46 23.12 27.46 23.74H29.78C30.1 23.74 30.22 23.86 30.22 24.18V26.6C30.22 26.92 30.12 27.02 29.78 27.02H27.46V33.54C27.46 33.88 27.36 34 27 34H24.5C24.2 34 24.08 33.88 24.08 33.58V27.04Z" fill="white"/>
</svg>
