<svg width="32" height="32" viewBox="0 0 32 32" fill="none" xmlns="http://www.w3.org/2000/svg">
<circle cx="16" cy="16" r="16" fill="#FF0000"/>
<path fill-rule="evenodd" clip-rule="evenodd" d="M17.9996 10.6667C18.0611 10.603 18.1346 10.5522 18.216 10.5173C18.2973 10.4823 18.3848 10.4639 18.4733 10.4632C18.5618 10.4624 18.6496 10.4793 18.7315 10.5128C18.8135 10.5463 18.8879 10.5958 18.9505 10.6584C19.0131 10.721 19.0626 10.7954 19.0961 10.8774C19.1296 10.9593 19.1465 11.0471 19.1457 11.1356C19.145 11.2241 19.1266 11.3116 19.0916 11.3929C19.0567 11.4743 19.0059 11.5478 18.9422 11.6093L15.0229 15.5287C14.8979 15.6537 14.8277 15.8232 14.8277 16C14.8277 16.1768 14.8979 16.3463 15.0229 16.4713L18.9429 20.3907C19.0679 20.5158 19.1381 20.6854 19.138 20.8622C19.138 21.0391 19.0677 21.2087 18.9426 21.3337C18.8175 21.4587 18.6479 21.5289 18.471 21.5288C18.2942 21.5287 18.1246 21.4584 17.9996 21.3333L13.1376 16.4713C13.0126 16.3463 12.9424 16.1768 12.9424 16C12.9424 15.8232 13.0126 15.6537 13.1376 15.5287L17.9996 10.6667Z" fill="white"/>
</svg>
