<svg width="196" height="32" viewBox="0 0 196 32" fill="none" xmlns="http://www.w3.org/2000/svg">
<path d="M2.50327 3.79303H28.2106C28.8746 3.79303 29.4841 4.07153 30.0357 4.62679C30.438 5.1094 30.6383 5.65256 30.6383 6.25799V10.4821H6.83173V13.2809H23.4868C23.4868 13.2931 23.4903 13.3017 23.4956 13.3086C23.5026 13.3155 23.5114 13.3173 23.5237 13.3173V19.9701L23.5044 19.9891V20.0081H6.83173L6.79484 29.6067H2.50327C1.73736 29.6067 1.08563 29.2919 0.546328 28.6623C0.182695 28.1935 0 27.7109 0 27.2162V6.14728C0 5.73905 0.144048 5.31352 0.432144 4.86896C0.971445 4.1511 1.66182 3.79303 2.50327 3.79303Z" fill="white"/>
<path d="M34.4381 3.79303H39.9523C40.943 3.79303 41.6967 4.21337 42.2096 5.05232C42.4222 5.41039 42.5293 5.85494 42.5293 6.38599V29.605H36.864C36.2492 29.605 35.6712 29.3525 35.1319 28.8456C34.6682 28.3769 34.4363 27.7835 34.4363 27.0674V3.79303H34.4381Z" fill="white"/>
<path d="M57.5102 3.79304H77.6646C78.6677 3.79304 79.4266 4.24971 79.9413 5.16477C80.1169 5.51073 80.2048 5.89301 80.2048 6.31335V10.4822H57.584C56.1663 10.4822 54.9876 11.0634 54.046 12.2241C53.4558 13.0146 53.1607 13.8604 53.1607 14.7634V18.6364C53.1607 19.7365 53.5682 20.7243 54.3833 21.6013C54.7223 21.8971 55.0175 22.1271 55.2687 22.2863C55.5691 22.4592 55.8519 22.5959 56.1154 22.6945C56.6424 22.8554 57.0429 22.9349 57.3205 22.9349H72.1504V19.7469H60.9902V16.7077C60.9902 16.0158 61.129 15.5089 61.4048 15.1872C61.6806 14.6925 62.1443 14.3344 62.7978 14.113C63.0367 14.0646 63.2563 14.0386 63.4566 14.0386H80.1679V27.2144C80.1679 27.8943 79.8605 28.5118 79.2456 29.0671C78.7696 29.4251 78.2425 29.605 77.6646 29.605H57.4715C55.2002 29.605 53.0552 28.92 51.0351 27.5483C50.6714 27.2767 50.2375 26.9117 49.7369 26.4551C49.2345 25.9482 48.8462 25.5158 48.5704 25.1577C47.1019 23.1806 46.3693 20.9578 46.3693 18.4859V14.9087C46.3693 11.8452 47.4918 9.18827 49.7386 6.94127C50.4659 6.29951 51.0298 5.86014 51.4321 5.62489C51.9222 5.30315 52.4351 5.02638 52.9744 4.79113C54.4553 4.12343 55.9661 3.78958 57.5102 3.78958V3.79304Z" fill="white"/>
<path d="M87.8656 3.79303H92.231V11.1689C92.231 11.8106 92.4752 12.3797 92.9653 12.8744C93.4554 13.3571 94.0825 13.5975 94.8467 13.5975H112.932L112.969 13.5612V3.79303H117.353C117.893 3.79303 118.432 4.02136 118.971 4.47803C119.486 4.97275 119.742 5.58337 119.742 6.31334V27.1418C119.742 28.0188 119.359 28.7176 118.594 29.2366C118.179 29.4839 117.74 29.6067 117.276 29.6067H112.967V22.973C112.967 22.4419 112.898 22.0458 112.76 21.7863C112.684 21.6013 112.572 21.3971 112.421 21.174C111.894 20.5686 111.222 20.2659 110.407 20.2659H92.2292V29.605H87.9008C87.2104 29.605 86.6079 29.3386 86.0949 28.8076C85.6557 28.3388 85.4362 27.7455 85.4362 27.0293V6.38772C85.4362 5.36195 85.8876 4.59046 86.7906 4.07153C87.1665 3.88644 87.5249 3.79303 87.8639 3.79303H87.8656Z" fill="white"/>
<path d="M126.332 3.79303H155.482C156.209 3.79303 156.812 4.00925 157.288 4.4417C157.552 4.68906 157.72 4.89318 157.796 5.05405C158.022 5.4865 158.135 5.85148 158.135 6.14728V10.5202H144.078V29.6067H139.712C139.098 29.6067 138.52 29.3663 137.98 28.8837C137.968 28.8716 137.956 28.8526 137.943 28.8283C137.907 28.792 137.856 28.7349 137.792 28.6623C137.429 28.1935 137.246 27.7109 137.246 27.2162V10.5202H123.677V7.11077C123.677 6.23377 123.702 5.78921 123.753 5.7771C123.865 5.28238 124.06 4.88799 124.336 4.59046C124.637 4.331 124.856 4.17012 124.995 4.10785C125.308 3.89855 125.754 3.79303 126.332 3.79303Z" fill="white"/>
<path d="M164.251 3.79304H183.334C185.906 3.79304 188.127 4.18916 189.996 4.97967C190.372 5.12844 190.667 5.25125 190.881 5.34985C191.194 5.52283 191.527 5.72694 191.879 5.9622C193.548 6.96202 194.733 8.37699 195.436 10.2054C195.812 11.181 196 12.2189 196 13.319V13.5595C196 14.881 195.717 16.1299 195.153 17.3027C194.978 17.6366 194.758 18.0068 194.494 18.415C194.268 18.7108 193.999 19.0273 193.685 19.3594C193.534 19.5324 193.384 19.6864 193.233 19.823L193.045 20.0081L192.894 20.1188L192.611 20.342C192.385 20.5028 192.104 20.6879 191.765 20.8972C191.714 20.9215 191.664 20.9526 191.614 20.9906C191.274 21.1636 190.967 21.3176 190.691 21.4542C190.552 21.5165 190.421 21.577 190.296 21.6393C189.806 21.8365 189.293 22.0164 188.754 22.1773C190.308 23.7583 191.376 24.9069 191.953 25.6248C192.341 26.0572 192.724 26.4827 193.1 26.9031C193.815 27.7178 194.498 28.4789 195.151 29.1829C195.352 29.368 195.471 29.4978 195.51 29.5721H187.38C186.916 29.5721 186.553 29.522 186.289 29.4234C186.213 29.3871 186.145 29.349 186.082 29.3127C186.019 29.2764 185.95 29.2331 185.874 29.1829C185.611 29.01 185.316 28.7194 184.989 28.3111C183.796 26.9152 182.537 25.3895 181.207 23.7341L180.548 22.9003C180.511 22.9003 180.436 22.9124 180.322 22.9367C179.543 22.9367 177.203 22.9488 173.302 22.973H168.522V27.1798C168.522 27.9704 168.178 28.6381 167.487 29.1812C167.073 29.4649 166.597 29.6067 166.057 29.6067H161.748V6.38773C161.748 5.96739 161.797 5.63354 161.899 5.38618C161.95 5.23741 162.038 5.06443 162.163 4.86724C162.251 4.74442 162.358 4.6268 162.482 4.51436C163.009 4.03175 163.6 3.79131 164.251 3.79131V3.79304ZM168.524 10.4821V16.3202H183.937C185.142 16.3202 186.057 16.1161 186.684 15.7079C187.136 15.4242 187.468 15.0471 187.682 14.5766C187.858 14.2185 187.946 13.8103 187.946 13.3536C187.946 12.4524 187.526 11.6982 186.684 11.0928C186.56 11.0063 186.428 10.9319 186.289 10.8696C186.252 10.8575 186.213 10.8385 186.177 10.8143C185.95 10.7036 185.606 10.605 185.142 10.5185C184.991 10.5185 184.784 10.5064 184.52 10.4821H168.524Z" fill="#FF0000"/>
</svg>
