<svg width="32" height="32" viewBox="0 0 32 32" fill="none" xmlns="http://www.w3.org/2000/svg">
<circle cx="16" cy="16" r="16" transform="matrix(-1 0 0 1 32 0)" fill="#FF0000"/>
<path fill-rule="evenodd" clip-rule="evenodd" d="M14.0004 10.6667C13.9389 10.603 13.8654 10.5522 13.784 10.5173C13.7027 10.4823 13.6152 10.4639 13.5267 10.4632C13.4382 10.4624 13.3504 10.4793 13.2685 10.5128C13.1865 10.5463 13.1121 10.5958 13.0495 10.6584C12.9869 10.721 12.9374 10.7954 12.9039 10.8774C12.8704 10.9593 12.8535 11.0471 12.8543 11.1356C12.855 11.2241 12.8734 11.3116 12.9084 11.3929C12.9433 11.4743 12.9941 11.5478 13.0578 11.6093L16.9771 15.5287C17.1021 15.6537 17.1723 15.8232 17.1723 16C17.1723 16.1768 17.1021 16.3463 16.9771 16.4713L13.0571 20.3907C12.9321 20.5158 12.8619 20.6854 12.862 20.8622C12.862 21.0391 12.9323 21.2087 13.0574 21.3337C13.1825 21.4587 13.3521 21.5289 13.529 21.5288C13.7058 21.5287 13.8754 21.4584 14.0004 21.3333L18.8624 16.4713C18.9874 16.3463 19.0576 16.1768 19.0576 16C19.0576 15.8232 18.9874 15.6537 18.8624 15.5287L14.0004 10.6667Z" fill="white"/>
</svg>
