<svg width="20" height="20" viewBox="0 0 20 20" fill="none" xmlns="http://www.w3.org/2000/svg">
<circle cx="10" cy="10" r="6" fill="#FF0000"/>
<path fill-rule="evenodd" clip-rule="evenodd" d="M10.0035 1.25525C12.2967 1.29669 14.4821 2.23678 16.0892 3.87321C17.6963 5.50965 18.5968 7.71161 18.5968 10.0052C18.5968 12.2989 17.6963 14.5009 16.0892 16.1373C14.4821 17.7737 12.2967 18.7138 10.0035 18.7552C7.7102 18.7138 5.52487 17.7737 3.91774 16.1373C2.31061 14.5009 1.41016 12.2989 1.41016 10.0052C1.41016 7.71161 2.31061 5.50965 3.91774 3.87321C5.52487 2.23678 7.7102 1.29669 10.0035 1.25525ZM8.18632 12.8476L6.04347 10.7029C5.86806 10.5269 5.76957 10.2885 5.76957 10.04C5.76957 9.79152 5.86806 9.55317 6.04347 9.37715C6.21976 9.20192 6.45823 9.10357 6.7068 9.10357C6.95537 9.10357 7.19384 9.20192 7.37013 9.37715L8.87966 10.8886L12.6368 7.13144C12.8128 6.95604 13.0512 6.85755 13.2997 6.85755C13.5481 6.85755 13.7865 6.95604 13.9625 7.13144C14.1377 7.30757 14.236 7.54589 14.236 7.7943C14.236 8.04271 14.1377 8.28102 13.9625 8.45715L9.54156 12.8781C9.45181 12.9674 9.34496 13.0376 9.2274 13.0846C9.10985 13.1316 8.98401 13.1543 8.85745 13.1515C8.73089 13.1486 8.6062 13.1203 8.49088 13.068C8.37555 13.0158 8.27196 12.9409 8.18632 12.8476Z" fill="white"/>
</svg>
