<svg width="52" height="52" viewBox="0 0 52 52" fill="none" xmlns="http://www.w3.org/2000/svg">
<circle cx="26" cy="26" r="26" fill="#FF0000"/>
<g clip-path="url(#clip0_383_294)">
<path d="M37.794 30.0684L35.52 27.7942L30.8158 32.4984C29.9761 33.3381 28.9222 33.8856 27.7774 34.0905L30.7746 37.0878C31.0491 37.3625 31.4945 37.3625 31.7689 37.0878L37.794 31.0629C38.0687 30.7882 38.0687 30.3429 37.794 30.0684ZM34.5937 26.7319C35.3863 25.9394 35.3865 24.6498 34.5948 23.8567L34.592 23.854C34.3997 23.6612 34.1704 23.509 33.918 23.4065C34.1341 22.8599 34.1797 21.9356 33.4639 21.2197C33.4621 21.2178 33.4602 21.2158 33.4583 21.214C33.2667 21.0231 33.0389 20.8723 32.7882 20.7705C33.0043 20.2243 33.0501 19.2998 32.3347 18.5842L32.3334 18.583C32.1373 18.3868 31.9083 18.2356 31.6587 18.1347C31.8748 17.5881 31.9204 16.6636 31.2046 15.9477C31.2044 15.9477 31.2044 15.9475 31.2042 15.9475L31.2037 15.947C30.4107 15.1539 29.1205 15.1539 28.3274 15.947L26.9943 17.28L27.676 17.9617C28.8119 19.0977 28.8119 20.9459 27.6762 22.0819C27.2938 22.464 26.8242 22.7266 26.3122 22.8517C26.186 23.3673 25.9205 23.8384 25.5446 24.2133C25.1629 24.595 24.6939 24.8574 24.1825 24.9827C24.0575 25.4939 23.7949 25.963 23.4133 26.3446C23.0315 26.7264 22.5626 26.9888 22.0511 27.114C21.9261 27.6253 21.6635 28.0944 21.2819 28.4761C20.7317 29.0262 20 29.3294 19.2218 29.3294C18.4436 29.3294 17.7119 29.0263 17.1617 28.4759L16.48 27.7942L14.206 30.0684C13.9313 30.3431 13.9313 30.7882 14.206 31.0629L20.2309 37.0878C20.5055 37.3625 20.9507 37.3623 21.2254 37.0878L25.5382 32.7751H26.7533C27.9124 32.7751 29.002 32.3235 29.8216 31.5042L34.5937 26.7319Z" fill="white"/>
<path d="M18.1561 27.4817C18.7446 28.0704 19.6989 28.0704 20.2875 27.4817C20.8761 26.8932 20.8761 25.9391 20.2875 25.3503C20.8761 25.9391 21.8303 25.9391 22.419 25.3503C23.0075 24.7618 23.0075 23.8075 22.419 23.219C23.0075 23.8075 23.9618 23.8075 24.5504 23.219C25.1388 22.6305 25.1388 21.6762 24.5504 21.0876C25.1388 21.6762 26.0932 21.6762 26.6817 21.0876C27.2704 20.499 27.2704 19.5448 26.6817 18.9561L23.6765 15.951C23.088 15.3625 22.1337 15.3625 21.5452 15.951C20.9567 16.5395 20.9567 17.4938 21.5452 18.0823L21.9217 18.459C21.3331 17.8703 20.3788 17.8703 19.7903 18.459C19.2018 19.0475 19.2018 20.0018 19.7903 20.5903L20.5434 21.3434C19.9549 20.7549 19.0006 20.7549 18.4121 21.3434C17.8234 21.932 17.8234 22.8863 18.4121 23.4748L19.1652 24.2281C18.5765 23.6394 17.6223 23.6394 17.0337 24.2281C16.4452 24.8166 16.4452 25.7707 17.0337 26.3594L18.1561 27.4817ZM27.333 14.9525C27.4363 14.8496 27.546 14.7533 27.6615 14.6641L27.2502 14.2529C27.1459 14.1486 27.0114 14.0797 26.8657 14.056C26.7201 14.0323 26.5707 14.0551 26.4387 14.121L24.7032 14.9888L26 16.2857L27.333 14.9525Z" fill="white"/>
</g>
<defs>
<clipPath id="clip0_383_294">
<rect width="24" height="24" fill="white" transform="translate(14 14)"/>
</clipPath>
</defs>
</svg>
