<svg width="52" height="52" viewBox="0 0 52 52" fill="none" xmlns="http://www.w3.org/2000/svg">
<circle cx="26" cy="26" r="26" fill="#FF0000"/>
<g clip-path="url(#clip0_383_314)">
<path fill-rule="evenodd" clip-rule="evenodd" d="M22.4359 35.4552C22.2812 35.4552 22.1688 35.3708 22.1266 35.2162L20.8893 30.9842C18.4711 31.0545 16.6292 30.9279 14.9983 29.536C14.3656 28.9877 14 28.355 14 27.638C13.9719 25.8524 15.9684 24.0949 17.051 23.1388C17.2338 22.9561 17.4166 22.8295 17.5431 22.717C17.6556 22.5905 17.7821 22.4358 17.9087 22.3234C18.3305 21.8313 18.8366 21.2548 19.7786 21.1142C20.566 20.9596 21.1705 21.0861 21.5923 21.4095C21.986 21.7188 22.1969 22.225 22.225 22.8858C22.2531 23.5325 22.0985 23.9543 21.7751 24.2496C21.3111 24.6432 20.6222 24.587 19.9614 24.4886L19.3287 26.0351L23.7294 25.9086C24.6995 25.1916 25.6415 24.8822 26.4851 25.0088C27.1178 25.0931 27.6943 25.4587 28.1442 26.0351C30.928 25.9367 31.2514 26.0914 31.5326 26.2179C31.6169 26.246 31.645 26.2742 31.8559 26.2742C32.0106 26.2742 32.1934 26.246 32.4043 26.1898C32.4886 26.1617 32.587 26.1617 32.6714 26.1195C32.587 25.8242 32.4886 25.5571 32.4043 25.3322C32.0668 24.2496 32.0668 24.2496 31.0405 23.6731C30.7452 23.4903 30.3797 23.2794 29.9298 23.0123C29.8032 22.9561 29.747 22.8295 29.7751 22.717C29.8313 22.1125 30.0703 21.6485 30.4921 21.3532C30.9842 21.0158 31.645 20.9596 32.4043 21.1705C33.3041 21.4095 33.7962 21.9578 34.218 22.464C34.3305 22.5905 34.457 22.7452 34.5835 22.8576C34.9069 23.2232 35.2162 23.4341 35.4834 23.645C35.8208 23.9262 36.1442 24.1652 36.4816 24.587C38.1406 26.7241 38.6609 28.0879 36.8753 29.6626C35.4834 30.8717 34.0914 30.9279 32.4605 30.9842C32.0387 31.0123 31.5888 31.0123 31.1389 31.0545L29.8595 35.1599C29.8313 35.3005 29.6767 35.3989 29.5642 35.3989L22.4359 35.4552Z" fill="white"/>
<path fill-rule="evenodd" clip-rule="evenodd" d="M26.0633 24.0387C25.3603 24.0387 24.6714 23.7715 24.0387 23.2232C22.8295 22.1968 22.1969 20.5097 22.4921 19.0896C22.7311 17.9367 23.5747 17.0932 24.9104 16.6995C25.9649 16.4042 27.0615 16.5167 27.9332 17.0369C28.7487 17.5149 29.3251 18.3023 29.5079 19.174C29.9016 21.0861 28.4816 23.2794 27.0193 23.8278C26.7241 23.9824 26.3867 24.0387 26.0633 24.0387Z" fill="white"/>
</g>
<defs>
<clipPath id="clip0_383_314">
<rect width="24" height="24" fill="white" transform="translate(14 14)"/>
</clipPath>
</defs>
</svg>
