<svg width="52" height="52" viewBox="0 0 52 52" fill="none" xmlns="http://www.w3.org/2000/svg">
<circle cx="26" cy="26" r="26" fill="#FF0000"/>
<path fill-rule="evenodd" clip-rule="evenodd" d="M22.3764 31.8753L24.6056 34.7724C24.8079 35.0353 24.7725 35.4076 24.5267 35.6306L23.7601 36.3263C23.6232 36.4505 23.4584 36.5058 23.2743 36.4891C23.0902 36.4725 22.9386 36.3882 22.8256 36.2419L20.3542 33.0428L22.3764 31.8753ZM34.6047 24.4401H36.875C37.2381 24.4401 37.532 24.1435 37.5312 23.7808C37.5305 23.4177 37.2344 23.1242 36.8717 23.1242H34.6014C34.2383 23.1242 33.9444 23.4208 33.9451 23.7834C33.9459 24.1467 34.242 24.4401 34.6047 24.4401ZM31.9099 18.4625L33.0451 16.4963C33.2264 16.1822 33.1204 15.7791 32.8062 15.5968C32.4925 15.4149 32.0888 15.5211 31.9072 15.8355L30.772 17.8017C30.5907 18.1158 30.6967 18.5189 31.0109 18.7011C31.3246 18.8831 31.7283 18.7769 31.9099 18.4625ZM34.5366 20.8176L36.4005 19.7414C36.7169 19.5588 36.8252 19.1543 36.6426 18.8378C36.4599 18.5214 36.0554 18.4131 35.739 18.5957L33.8751 19.6719C33.5587 19.8546 33.4503 20.259 33.633 20.5755C33.8157 20.8918 34.2202 21.0002 34.5366 20.8176ZM31.6051 23.7786L33.8035 27.5864C34.2163 28.3013 33.9691 29.2239 33.2542 29.6367C32.587 30.0219 31.7391 29.8323 31.2933 29.2243H31.2932C28.8597 28.8541 25.6898 29.2517 22.5378 30.4805L19.5076 25.2319C22.1487 23.1188 24.084 20.5859 24.9802 18.2934L24.9802 18.2933C24.6654 17.6001 24.924 16.761 25.5963 16.3729C26.3113 15.9601 27.2339 16.2073 27.6466 16.9222L29.8451 20.7301C29.9085 20.6811 29.9752 20.6364 30.0446 20.5963C30.8941 20.1058 31.9803 20.3969 32.4708 21.2464C32.9612 22.0959 32.6702 23.1822 31.8207 23.6727C31.7513 23.7128 31.6793 23.7481 31.6051 23.7786ZM21.7759 31.0357L18.6006 25.536L16.0763 26.9934C14.5425 27.879 14.0122 29.8585 14.8977 31.3923L14.8977 31.3923C15.7833 32.9261 17.7627 33.4565 19.2966 32.571L21.8208 31.1136L21.7759 31.0357Z" fill="white"/>
</svg>
